<?xml version="1.0" encoding="UTF-8" standalone="no"?>
<!-- Created with Inkscape (http://www.inkscape.org/) -->

<svg
   xmlns:dc="http://purl.org/dc/elements/1.1/"
   xmlns:cc="http://creativecommons.org/ns#"
   xmlns:rdf="http://www.w3.org/1999/02/22-rdf-syntax-ns#"
   xmlns:svg="http://www.w3.org/2000/svg"
   xmlns="http://www.w3.org/2000/svg"
   xmlns:sodipodi="http://sodipodi.sourceforge.net/DTD/sodipodi-0.dtd"
   xmlns:inkscape="http://www.inkscape.org/namespaces/inkscape"
   width="800"
   height="800"
   viewBox="0 0 800.00001 800.00001"
   id="svg4136"
   version="1.1"
   inkscape:version="0.91 r13725"
   sodipodi:docname="Macrosimulation.svg"
   inkscape:export-filename="D:\GIT\SimUrban\images\TrafficBowlPoster\microsimulation.png"
   inkscape:export-xdpi="300"
   inkscape:export-ydpi="300">
  <defs
     id="defs4138">
    <marker
       inkscape:stockid="Arrow1Mend"
       orient="auto"
       refY="0.0"
       refX="0.0"
       id="marker11394"
       style="overflow:visible;"
       inkscape:isstock="true">
      <path
         id="path11396"
         d="M 0.0,0.0 L 5.0,-5.0 L -12.5,0.0 L 5.0,5.0 L 0.0,0.0 z "
         style="fill-rule:evenodd;stroke:#000000;stroke-width:1pt;stroke-opacity:1;fill:#000000;fill-opacity:1"
         transform="scale(0.4) rotate(180) translate(10,0)" />
    </marker>
    <marker
       inkscape:isstock="true"
       style="overflow:visible;"
       id="marker10980"
       refX="0.0"
       refY="0.0"
       orient="auto"
       inkscape:stockid="Arrow1Mend"
       inkscape:collect="always">
      <path
         transform="scale(0.4) rotate(180) translate(10,0)"
         style="fill-rule:evenodd;stroke:#000000;stroke-width:1pt;stroke-opacity:1;fill:#000000;fill-opacity:1"
         d="M 0.0,0.0 L 5.0,-5.0 L -12.5,0.0 L 5.0,5.0 L 0.0,0.0 z "
         id="path10982" />
    </marker>
    <marker
       inkscape:stockid="Arrow1Mend"
       orient="auto"
       refY="0.0"
       refX="0.0"
       id="Arrow1Mend"
       style="overflow:visible;"
       inkscape:isstock="true"
       inkscape:collect="always">
      <path
         id="path6491"
         d="M 0.0,0.0 L 5.0,-5.0 L -12.5,0.0 L 5.0,5.0 L 0.0,0.0 z "
         style="fill-rule:evenodd;stroke:#000000;stroke-width:1pt;stroke-opacity:1;fill:#000000;fill-opacity:1"
         transform="scale(0.4) rotate(180) translate(10,0)" />
    </marker>
    <marker
       inkscape:stockid="Arrow1Lend"
       orient="auto"
       refY="0.0"
       refX="0.0"
       id="marker6764"
       style="overflow:visible;"
       inkscape:isstock="true">
      <path
         id="path6766"
         d="M 0.0,0.0 L 5.0,-5.0 L -12.5,0.0 L 5.0,5.0 L 0.0,0.0 z "
         style="fill-rule:evenodd;stroke:#000000;stroke-width:1pt;stroke-opacity:1;fill:#000000;fill-opacity:1"
         transform="scale(0.8) rotate(180) translate(12.5,0)" />
    </marker>
    <marker
       inkscape:stockid="Arrow1Lend"
       orient="auto"
       refY="0.0"
       refX="0.0"
       id="Arrow1Lend"
       style="overflow:visible;"
       inkscape:isstock="true">
      <path
         id="path6485"
         d="M 0.0,0.0 L 5.0,-5.0 L -12.5,0.0 L 5.0,5.0 L 0.0,0.0 z "
         style="fill-rule:evenodd;stroke:#000000;stroke-width:1pt;stroke-opacity:1;fill:#000000;fill-opacity:1"
         transform="scale(0.8) rotate(180) translate(12.5,0)" />
    </marker>
    <filter
       inkscape:collect="always"
       style="color-interpolation-filters:sRGB"
       id="filter4999-6-5-7-7-4"
       x="-0.12290909"
       width="1.2458183"
       y="-0.21347371"
       height="1.4269474">
      <feGaussianBlur
         inkscape:collect="always"
         stdDeviation="0.85357903"
         id="feGaussianBlur5001-6-2-4-1-4" />
    </filter>
    <filter
       inkscape:collect="always"
       style="color-interpolation-filters:sRGB"
       id="filter4999-7-4-8-7-4-0"
       x="-0.12290909"
       width="1.2458183"
       y="-0.21347371"
       height="1.4269474">
      <feGaussianBlur
         inkscape:collect="always"
         stdDeviation="0.85357903"
         id="feGaussianBlur5001-4-0-0-2-5-3" />
    </filter>
    <filter
       inkscape:collect="always"
       style="color-interpolation-filters:sRGB"
       id="filter4999-7-2-9-3-9-4-1"
       x="-0.12290909"
       width="1.2458183"
       y="-0.21347371"
       height="1.4269474">
      <feGaussianBlur
         inkscape:collect="always"
         stdDeviation="0.85357903"
         id="feGaussianBlur5001-4-2-0-5-6-8-7" />
    </filter>
    <filter
       inkscape:collect="always"
       style="color-interpolation-filters:sRGB"
       id="filter4999-7-2-8-6-0-2-8-1"
       x="-0.12290909"
       width="1.2458183"
       y="-0.21347371"
       height="1.4269474">
      <feGaussianBlur
         inkscape:collect="always"
         stdDeviation="0.85357903"
         id="feGaussianBlur5001-4-2-4-2-6-0-6-7" />
    </filter>
    <marker
       inkscape:stockid="Arrow1Mend"
       orient="auto"
       refY="0"
       refX="0"
       id="Arrow1Mend-2"
       style="overflow:visible"
       inkscape:isstock="true">
      <path
         inkscape:connector-curvature="0"
         id="path6491-0"
         d="M 0,0 5,-5 -12.5,0 5,5 0,0 Z"
         style="fill:#000000;fill-opacity:1;fill-rule:evenodd;stroke:#000000;stroke-width:1pt;stroke-opacity:1"
         transform="matrix(-0.4,0,0,-0.4,-4,0)" />
    </marker>
    <marker
       inkscape:stockid="Arrow1Mend"
       orient="auto"
       refY="0"
       refX="0"
       id="Arrow1Mend-8"
       style="overflow:visible"
       inkscape:isstock="true">
      <path
         inkscape:connector-curvature="0"
         id="path6491-7"
         d="M 0,0 5,-5 -12.5,0 5,5 0,0 Z"
         style="fill:#000000;fill-opacity:1;fill-rule:evenodd;stroke:#000000;stroke-width:1pt;stroke-opacity:1"
         transform="matrix(-0.4,0,0,-0.4,-4,0)" />
    </marker>
    <marker
       inkscape:stockid="Arrow1Mend"
       orient="auto"
       refY="0"
       refX="0"
       id="Arrow1Mend-8-8"
       style="overflow:visible"
       inkscape:isstock="true">
      <path
         inkscape:connector-curvature="0"
         id="path6491-7-5"
         d="M 0,0 5,-5 -12.5,0 5,5 0,0 Z"
         style="fill:#000000;fill-opacity:1;fill-rule:evenodd;stroke:#000000;stroke-width:1pt;stroke-opacity:1"
         transform="matrix(-0.4,0,0,-0.4,-4,0)" />
    </marker>
    <marker
       inkscape:stockid="Arrow1Mend"
       orient="auto"
       refY="0"
       refX="0"
       id="Arrow1Mend-8-8-9"
       style="overflow:visible"
       inkscape:isstock="true">
      <path
         inkscape:connector-curvature="0"
         id="path6491-7-5-0"
         d="M 0,0 5,-5 -12.5,0 5,5 0,0 Z"
         style="fill:#000000;fill-opacity:1;fill-rule:evenodd;stroke:#000000;stroke-width:1pt;stroke-opacity:1"
         transform="matrix(-0.4,0,0,-0.4,-4,0)" />
    </marker>
    <filter
       inkscape:collect="always"
       style="color-interpolation-filters:sRGB"
       id="filter4999-6-5-7-7-4-3"
       x="-0.12290909"
       width="1.2458183"
       y="-0.21347371"
       height="1.4269474">
      <feGaussianBlur
         inkscape:collect="always"
         stdDeviation="0.85357903"
         id="feGaussianBlur5001-6-2-4-1-4-9" />
    </filter>
    <filter
       inkscape:collect="always"
       style="color-interpolation-filters:sRGB"
       id="filter4999-7-4-8-7-4-0-9"
       x="-0.12290909"
       width="1.2458183"
       y="-0.21347371"
       height="1.4269474">
      <feGaussianBlur
         inkscape:collect="always"
         stdDeviation="0.85357903"
         id="feGaussianBlur5001-4-0-0-2-5-3-3" />
    </filter>
    <filter
       inkscape:collect="always"
       style="color-interpolation-filters:sRGB"
       id="filter4999-7-2-9-3-9-4-1-6"
       x="-0.12290909"
       width="1.2458183"
       y="-0.21347371"
       height="1.4269474">
      <feGaussianBlur
         inkscape:collect="always"
         stdDeviation="0.85357903"
         id="feGaussianBlur5001-4-2-0-5-6-8-7-2" />
    </filter>
    <filter
       inkscape:collect="always"
       style="color-interpolation-filters:sRGB"
       id="filter4999-7-2-8-6-0-2-8-1-3"
       x="-0.12290909"
       width="1.2458183"
       y="-0.21347371"
       height="1.4269474">
      <feGaussianBlur
         inkscape:collect="always"
         stdDeviation="0.85357903"
         id="feGaussianBlur5001-4-2-4-2-6-0-6-7-2" />
    </filter>
  </defs>
  <sodipodi:namedview
     id="base"
     pagecolor="#ffffff"
     bordercolor="#666666"
     borderopacity="1.0"
     inkscape:pageopacity="0.0"
     inkscape:pageshadow="2"
     inkscape:zoom="0.7"
     inkscape:cx="407.8545"
     inkscape:cy="264.25048"
     inkscape:document-units="px"
     inkscape:current-layer="layer1"
     showgrid="false"
     units="px"
     inkscape:window-width="1920"
     inkscape:window-height="1017"
     inkscape:window-x="-8"
     inkscape:window-y="-8"
     inkscape:window-maximized="1" />
  <metadata
     id="metadata4141">
    <rdf:RDF>
      <cc:Work
         rdf:about="">
        <dc:format>image/svg+xml</dc:format>
        <dc:type
           rdf:resource="http://purl.org/dc/dcmitype/StillImage" />
        <dc:title />
      </cc:Work>
    </rdf:RDF>
  </metadata>
  <g
     inkscape:label="Layer 1"
     inkscape:groupmode="layer"
     id="layer1"
     transform="translate(0,-252.36216)">
    <path
       style="fill:#ff8080;fill-rule:evenodd;stroke:#000000;stroke-width:1px;stroke-linecap:butt;stroke-linejoin:miter;stroke-opacity:1"
       d="m 75.761441,507.88994 c 13.788993,-15.42388 46.246139,-23.21232 75.761439,-27.27412 29.5153,-4.0618 76.64174,-4.86968 97.9848,7.07107 21.34306,11.94075 30.64265,16.06319 28.28427,39.39595 -2.35838,23.33276 -67.0231,35.95872 -67.68022,62.62945 -0.65712,26.67073 26.1812,36.4564 47.47717,48.48733 21.29597,12.03093 61.67232,-4.58603 76.77159,18.18274 15.09927,22.76877 9.49611,52.69688 -14.14213,83.84266 -23.63824,31.14578 -95.09109,68.1576 -135.36044,63.63961 -40.26935,-4.51799 -72.74358,-28.65047 -73.74114,-57.57869 -0.99756,-28.92822 50.11415,-28.91592 59.599,-53.53809 9.48485,-24.62217 9.10216,-55.81147 -8.08122,-77.78174 -17.18338,-21.97027 -68.867025,-15.6015 -83.842661,-30.30458 -14.975636,-14.70308 -12.25204,-20.97704 -13.131984,-34.34519 -0.879944,-13.36815 -3.687467,-27.00252 10.101526,-42.4264 z"
       id="path6376"
       inkscape:connector-curvature="0"
       sodipodi:nodetypes="zzzzzzzzzzzzzzz" />
    <path
       style="fill:#e5ffd5;fill-rule:evenodd;stroke:#000000;stroke-width:1px;stroke-linecap:butt;stroke-linejoin:miter;stroke-opacity:1;fill-opacity:1"
       d="m 287.89348,553.3468 c -14.03372,4.15055 -31.94251,5.23359 -40.40611,17.1726 -6.04926,8.53327 -8.07328,22.78408 -2.0203,31.31472 8.6988,12.25947 28.565,9.93084 43.43656,12.12184 16.32636,2.40533 33.13514,-1.13684 49.49747,1.01015 18.21886,2.39059 43.03823,-1.94763 53.53809,13.13198 6.77809,9.7345 -1.68494,23.72977 -4.04061,35.35534 -4.73973,23.39123 -32.05947,47.97709 -20.20305,68.69037 8.96595,15.66361 34.53107,14.49218 52.52793,13.13199 24.38135,-1.84273 50.69292,-10.69799 67.68022,-28.28428 11.25323,-11.65003 15.09148,-29.39363 17.17259,-45.45686 3.34915,-25.85076 5.53522,-55.55404 -8.08122,-77.78175 -11.31863,-18.47673 -34.7182,-26.62203 -54.54824,-35.35533 -23.24487,-10.23722 -48.36285,-18.1597 -73.74113,-19.1929 -27.32413,-1.11242 -54.58831,6.38627 -80.8122,14.14213 z"
       id="path6378"
       inkscape:connector-curvature="0"
       sodipodi:nodetypes="aaaaaaaaaaaaaaa" />
    <path
       style="fill:#aaeeff;fill-rule:evenodd;stroke:#000000;stroke-width:1px;stroke-linecap:butt;stroke-linejoin:miter;stroke-opacity:1;fill-opacity:1"
       d="m 316.17775,470.51429 c -10.3063,3.82649 -22.57853,10.54997 -25.25382,21.21321 -1.76502,7.03508 2.82369,15.20645 8.08122,20.20305 9.80258,9.31608 24.91259,11.96901 38.3858,13.13198 21.39921,1.84712 42.16619,-9.62162 63.63961,-10.10152 17.95554,-0.40128 37.44441,-1.91129 53.53809,6.06091 19.63313,9.72551 30.64581,31.33164 45.45686,47.47717 9.99975,10.90073 14.65837,31.18864 29.29442,33.33503 12.57188,1.84368 24.19063,-10.44164 32.32489,-20.20305 12.28866,-14.74685 21.2838,-34.34236 21.2132,-53.53808 -0.0561,-15.25658 -5.5406,-32.55406 -17.17259,-42.42641 -21.05103,-17.86652 -53.33665,-15.45287 -80.81221,-18.18274 -28.82362,-2.86381 -57.91217,1.50479 -86.87312,2.0203 -27.27187,0.48544 -56.25169,-8.48364 -81.82235,1.01015 z"
       id="path6380"
       inkscape:connector-curvature="0"
       sodipodi:nodetypes="aaaaaaaaaaaaaa" />
    <path
       style="fill:#e5ffd5;fill-rule:evenodd;stroke:#000000;stroke-width:1px;stroke-linecap:butt;stroke-linejoin:miter;stroke-opacity:1;fill-opacity:1"
       d="m 610.13214,585.67168 c -1.53939,-3.61244 5.01272,-6.31724 6.06091,-10.10152 6.2018,-22.39048 -9.13438,-48.33797 0,-69.70053 8.23967,-19.27011 25.89512,-35.91547 45.45687,-43.43656 22.00915,-8.46207 48.28599,-5.26958 70.71068,2.02031 22.11619,7.1896 47.73357,18.32726 57.57869,39.39595 13.31892,28.50267 -2.90518,63.09735 -9.09137,93.94418 -5.61255,27.9864 -4.48711,62.23964 -25.25382,81.82236 -27.74729,26.1653 -72.9885,26.39682 -111.11678,27.27412 -24.36083,0.56053 -63.04824,8.62956 -71.72083,-14.14214 -4.9615,-13.02745 14.25692,-24.7677 25.25382,-33.33503 9.52174,-7.41809 25.38752,-5.05761 33.33503,-14.14214 11.72534,-13.40285 23.28386,-36.23547 14.14214,-51.51778 -6.20595,-10.37455 -30.61612,3.04015 -35.35534,-8.08122 z"
       id="path6382"
       inkscape:connector-curvature="0"
       sodipodi:nodetypes="aaaaaaaaaaaaaa" />
    <path
       style="fill:#ff8080;fill-rule:evenodd;stroke:#000000;stroke-width:1px;stroke-linecap:butt;stroke-linejoin:miter;stroke-opacity:1;fill-opacity:1"
       d="m 518.20826,638.19962 c 5.6321,-11.41479 18.68072,-18.04658 30.30457,-23.23351 15.01683,-6.70098 37.21139,-21.06057 48.48732,-9.09138 7.61593,8.08417 -2.72175,22.59698 -8.08122,32.32489 -9.88343,17.93931 -37.63106,24.53426 -42.4264,44.44671 -3.86613,16.05393 1.7805,36.52884 14.14213,47.47717 25.56847,22.64523 66.86337,17.62163 101.01526,17.17259 24.36517,-0.32036 47.74066,-18.46826 71.72083,-14.14213 20.23247,3.65003 42.93591,14.14058 52.52793,32.32488 9.7515,18.48665 9.30206,45.7547 -3.03046,62.62945 -12.51048,17.11825 -38.70072,18.64447 -59.599,22.22336 -37.50899,6.42351 -76.11055,-0.83864 -114.14724,-2.0203 -30.31986,-0.94192 -60.59346,-4.96946 -90.91372,-4.04061 -22.33752,0.6843 -44.43513,4.82593 -66.67007,7.07106 -24.5682,2.48072 -54.73238,22.83234 -73.74114,7.07107 -11.45205,-9.49556 -9.52063,-30.61614 -4.04061,-44.44671 10.2799,-25.94459 34.78856,-53.63938 62.62946,-55.55839 15.74532,-1.08529 23.65845,25.07056 39.39595,26.26397 16.67313,1.26437 36.94907,-6.81844 45.45686,-21.21321 7.72673,-13.07325 -2.5251,-30.27935 -3.03045,-45.45686 -0.88521,-26.58595 -11.77014,-55.94707 0,-79.80205 z"
       id="path6384"
       inkscape:connector-curvature="0"
       sodipodi:nodetypes="aaaaaaaaaaaaaaaaaaaaa" />
    <path
       style="fill:#aaeeff;fill-rule:evenodd;stroke:#000000;stroke-width:1px;stroke-linecap:butt;stroke-linejoin:miter;stroke-opacity:1;fill-opacity:1"
       d="m 261.62951,805.88494 c 14.35583,-12.45075 32.70647,-19.38633 49.49747,-28.28427 16.23347,-8.60249 31.30368,-21.69142 49.49748,-24.24366 9.48437,-1.33047 23.90565,-3.46693 28.28427,5.05076 3.58065,6.9654 -5.04268,15.23441 -10.10153,21.2132 -10.61956,12.55069 -37.93896,12.02979 -40.4061,28.28427 -1.98097,13.05139 28.17828,18.71386 24.24366,31.31473 -6.31638,20.2286 -46.9474,2.99261 -60.60915,19.1929 -6.35469,7.53548 3.44719,22.88363 -4.04061,29.29443 -72.65231,62.20247 -227.411961,69.85359 -286.883322,-5.05077 -5.9955516,-7.55142 -0.384392,-21.1129 6.060915,-28.28427 17.29604,-19.24443 51.16701,-11.59811 73.741136,-24.24366 12.713641,-7.12191 19.066731,-25.32221 33.335031,-28.28427 22.73654,-4.72004 43.76402,16.38966 66.67007,20.20305 18.61204,3.09853 39.47368,10.00622 56.56854,2.0203 6.95668,-3.24984 8.34151,-13.15188 14.14214,-18.18274 z"
       id="path6386"
       inkscape:connector-curvature="0"
       sodipodi:nodetypes="aaaaaaaaaaaaaaaa" />
    <path
       style="fill:#e5ffd5;fill-rule:evenodd;stroke:#000000;stroke-width:1px;stroke-linecap:butt;stroke-linejoin:miter;stroke-opacity:1;fill-opacity:1"
       d="m 16.162441,836.18952 c 5.034986,-1.99401 -4.642701,2.14299 4.04061,-3.03046 8.683311,-5.17345 38.313098,-12.52975 50.507627,-23.23351 12.194529,-10.70376 22.208324,-23.63051 22.223356,-35.35534 0.01503,-11.72483 -13.922288,-10.46718 -15.152288,-24.24366 -1.23,-13.77648 8.344825,-38.84379 20.203051,-50.50763 11.858223,-11.66384 34.269043,-2.09892 42.426403,-16.16244 8.15736,-14.06352 2.98696,-37.63143 -8.08122,-51.51778 -11.06818,-13.88635 -36.267001,-16.78473 -50.507624,-20.20305 -14.240623,-3.41832 -24.508992,4.15968 -33.335034,-3.03046 -8.826042,-7.19014 15.007584,-23.71158 2.525382,-27.77919 -12.482202,-4.06761 -35.411567,-19.14411 -69.700526,18.68782 -34.28896,37.83193 -27.823225,207.47227 7.576144,239.40615 35.399369,31.93388 22.239133,-1.03644 27.274119,-3.03045 z"
       id="path6388"
       inkscape:connector-curvature="0"
       sodipodi:nodetypes="zzzzzzzzzzzzzz" />
    <path
       style="fill:#aaeeff;fill-rule:evenodd;stroke:#000000;stroke-width:1px;stroke-linecap:butt;stroke-linejoin:miter;stroke-opacity:1;fill-opacity:1"
       d="m -9.0913728,545.26558 c 12.3568058,11.20576 37.6555168,13.23683 50.0025508,2.02031 6.739631,-6.12255 -0.821833,-18.47376 1.515229,-27.27412 3.478523,-13.0986 7.823173,-27.62749 18.182746,-36.36549 8.875142,-7.48593 21.975154,-7.70145 33.335034,-10.10153 18.919433,-3.99724 44.765713,7.41169 57.578693,-7.07107 6.24716,-7.06129 6.62824,-21.5794 0,-28.28427 -41.19252,-41.66872 -137.037134,-45.98778 -175.766541,-2.0203 -24.268088,27.5503 -12.044616,84.43298 15.1522882,109.09647 z"
       id="path6390"
       inkscape:connector-curvature="0"
       sodipodi:nodetypes="aaaaaaaaa" />
    <g
       transform="matrix(0.95057131,0.31050633,-0.31050633,0.95057131,66.87276,112.97596)"
       id="g5497-9-1-1-4-4">
      <path
         sodipodi:nodetypes="sssss"
         inkscape:connector-curvature="0"
         id="path5223-8-1-3-2-2-9"
         d="m 232.72904,372.8247 c -0.48022,-1.3507 1.5029,-1.2939 2.90178,-1.60715 1.02928,-0.23049 2.24118,-0.2185 3.12501,0.35715 0.84938,0.55321 2.63386,0.69706 2.18749,1.60714 -1.20688,2.46065 -7.29617,2.22519 -8.21428,-0.35714 z"
         style="fill:#999999;fill-rule:evenodd;stroke:#000000;stroke-width:1px;stroke-linecap:butt;stroke-linejoin:miter;stroke-opacity:1" />
      <path
         sodipodi:nodetypes="sssss"
         inkscape:connector-curvature="0"
         id="path5223-1-6-1-9-1"
         d="m 195.89286,369.68359 c -0.48022,-1.3507 1.5029,-1.2939 2.90178,-1.60715 1.02928,-0.23049 2.24118,-0.2185 3.12501,0.35715 0.84938,0.55321 2.63386,0.69706 2.18749,1.60714 -1.20688,2.46065 -7.29617,2.22519 -8.21428,-0.35714 z"
         style="fill:#999999;fill-rule:evenodd;stroke:#000000;stroke-width:1px;stroke-linecap:butt;stroke-linejoin:miter;stroke-opacity:1" />
      <g
         id="g5270-0-9-3-5-4">
        <g
           id="g5080-4-8-8-6-3">
          <g
             transform="matrix(0.99760001,0.06924034,-0.06924034,0.99760001,11.858019,31.114337)"
             id="g5066-2-1-0-6-9">
            <path
               sodipodi:nodetypes="sssssss"
               inkscape:connector-curvature="0"
               id="rect4947-0-1-7-3-1"
               d="m 199.34038,326.65738 c 3.4638,-2.82356 21.43234,-1.20727 39.51298,-0.64707 10.64437,0.3298 20.91847,-0.36058 22.14416,0.54895 2.65271,1.96844 4.8186,18.19738 0.74545,24.7225 -1.35042,2.16334 -11.57657,1.32355 -21.67041,1.78696 -17.86364,0.82014 -40.01,0.83374 -40.07256,0.72201 -1.70539,-3.04596 -3.8731,-24.51384 -0.65962,-27.13335 z"
               style="opacity:1;fill:#00aaaa;fill-opacity:1;stroke:#000000;stroke-width:1;stroke-linejoin:bevel;stroke-miterlimit:4;stroke-dasharray:none;stroke-dashoffset:0;stroke-opacity:1" />
            <path
               style="fill:#d3f51b;fill-opacity:1;fill-rule:evenodd;stroke:none;stroke-width:1px;stroke-linecap:butt;stroke-linejoin:miter;stroke-opacity:1;filter:url(#filter4999-6-5-7-7-4)"
               d="m 268.1955,328.33532 16.41498,-1.76777 0,9.59645 -16.66752,-2.77792 z"
               id="path4949-7-7-7-3-6"
               inkscape:connector-curvature="0" />
            <path
               style="fill:#d3f51b;fill-opacity:1;fill-rule:evenodd;stroke:none;stroke-width:1px;stroke-linecap:butt;stroke-linejoin:miter;stroke-opacity:1;filter:url(#filter4999-7-4-8-7-4-0)"
               d="m 268.1955,343.23507 16.41498,-1.76777 0,9.59645 -16.66752,-2.77792 z"
               id="path4949-0-1-8-8-7-1"
               inkscape:connector-curvature="0" />
            <path
               style="fill:#ca2409;fill-opacity:1;fill-rule:evenodd;stroke:none;stroke-width:1px;stroke-linecap:butt;stroke-linejoin:miter;stroke-opacity:1;filter:url(#filter4999-7-2-9-3-9-4-1)"
               d="m 168.94802,332.88101 16.41498,-1.76777 0,9.59645 -16.66752,-2.77792 z"
               id="path4949-0-0-2-6-1-6-5"
               inkscape:connector-curvature="0"
               transform="matrix(-0.72727279,0,0,-0.84210526,319.41485,615.24874)" />
            <path
               style="fill:#ca2409;fill-opacity:1;fill-rule:evenodd;stroke:none;stroke-width:1px;stroke-linecap:butt;stroke-linejoin:miter;stroke-opacity:1;filter:url(#filter4999-7-2-8-6-0-2-8-1)"
               d="m 168.94802,332.88101 16.41498,-1.76777 0,9.59645 -16.66752,-2.77792 z"
               id="path4949-0-0-8-1-1-8-0-1"
               inkscape:connector-curvature="0"
               transform="matrix(-0.72727279,0,0,-0.84210526,319.66738,629.39088)" />
          </g>
          <path
             inkscape:connector-curvature="0"
             id="path5073-4-9-1-4-6"
             d="m 238.01719,375.68622 7.95496,3.283 -0.75762,17.17259 -8.5863,1.01015 z"
             style="fill:#00d5d5;fill-opacity:1;fill-rule:evenodd;stroke:#000000;stroke-width:1px;stroke-linecap:butt;stroke-linejoin:miter;stroke-opacity:1" />
          <path
             sodipodi:nodetypes="ccccc"
             inkscape:connector-curvature="0"
             id="path5075-9-4-6-1-0"
             d="m 203.18796,374.35854 30.91489,0.82261 -1.01015,22.34962 -30.4468,-2.31617 z"
             style="fill:#008080;fill-opacity:1;fill-rule:evenodd;stroke:#000000;stroke-width:1px;stroke-linecap:butt;stroke-linejoin:miter;stroke-opacity:1" />
          <path
             inkscape:connector-curvature="0"
             id="path5078-6-3-5-8-5"
             d="m 201.42857,374.23716 -4.64286,0.98214 -0.35714,17.85714 4.55357,2.32143 z"
             style="fill:#00c7c7;fill-opacity:1;fill-rule:evenodd;stroke:#000000;stroke-width:1px;stroke-linecap:butt;stroke-linejoin:miter;stroke-opacity:1" />
        </g>
      </g>
      <path
         sodipodi:nodetypes="ssssss"
         inkscape:connector-curvature="0"
         id="path5223-8-5-4-5-7-8-9"
         d="m 232.14867,400.77112 c -0.48022,-1.3507 1.5029,-1.2939 2.90178,-1.60715 1.02928,-0.23049 2.24118,-0.2185 3.12501,0.35715 0.84938,0.55321 2.63386,0.69706 2.18749,1.60714 -0.62939,1.28323 -2.58661,1.38679 -4.44578,1.25307 -1.70587,-0.1227 -3.32919,-0.37457 -3.7685,-1.61021 z"
         style="fill:#999999;fill-rule:evenodd;stroke:#000000;stroke-width:1px;stroke-linecap:butt;stroke-linejoin:miter;stroke-opacity:1" />
      <path
         sodipodi:nodetypes="ssssss"
         inkscape:connector-curvature="0"
         id="path5223-8-5-9-3-8-0-6-8"
         d="m 193.93439,399.82085 c -0.48022,-1.3507 1.5029,-1.2939 2.90178,-1.60715 1.02928,-0.23049 2.24118,-0.2185 3.12501,0.35715 0.84938,0.55321 2.63386,0.69706 2.18749,1.60714 -0.62939,1.28323 -2.58661,1.38679 -4.44578,1.25307 -1.70587,-0.1227 -3.32919,-0.37457 -3.7685,-1.61021 z"
         style="fill:#999999;fill-rule:evenodd;stroke:#000000;stroke-width:1px;stroke-linecap:butt;stroke-linejoin:miter;stroke-opacity:1" />
    </g>
    <path
       style="fill:none;fill-rule:evenodd;stroke:#000000;stroke-width:10;stroke-linecap:butt;stroke-linejoin:miter;stroke-miterlimit:4;stroke-dasharray:none;stroke-opacity:1;marker-end:url(#Arrow1Mend)"
       d="m 209.28571,543.79073 c 0,0 28.888,-17.09775 45,-20.71428 22.76803,-5.11056 47.85974,-8.08382 70,-0.71429 19.33868,6.43701 35.12777,21.82334 48.57143,37.14286 l 30.71429,35"
       id="path6476"
       inkscape:connector-curvature="0"
       sodipodi:nodetypes="caasc" />
    <path
       style="fill:none;fill-rule:evenodd;stroke:#000000;stroke-width:10;stroke-linecap:butt;stroke-linejoin:miter;stroke-miterlimit:4;stroke-dasharray:none;stroke-opacity:1;marker-end:url(#Arrow1Mend-2)"
       d="m 217.11707,675.26528 c 0,0 29.34528,-15.46019 45,-20.71428 39.98074,-13.41847 81.57898,-31.03503 123.57143,-27.14286 40.68721,3.77119 106.13072,40.20142 112.85714,47.85714 6.72642,7.65573 108.57144,123.57143 108.57144,123.57143"
       id="path6476-1"
       inkscape:connector-curvature="0"
       sodipodi:nodetypes="caazc" />
    <path
       style="fill:none;fill-rule:evenodd;stroke:#000000;stroke-width:10;stroke-linecap:butt;stroke-linejoin:miter;stroke-miterlimit:4;stroke-dasharray:none;stroke-opacity:1;marker-end:url(#Arrow1Mend-8)"
       d="m 200.68851,503.8367 c 0,0 27.91439,-18.32423 43.57143,-23.57142 28.54347,-9.56588 59.18722,-14.13399 89.28571,-13.57144 30.53404,0.57069 72.93267,6.00169 90,17.14286 l 51.42858,33.57143"
       id="path6476-6"
       inkscape:connector-curvature="0"
       sodipodi:nodetypes="caasc" />
    <path
       style="fill:none;fill-rule:evenodd;stroke:#000000;stroke-width:10;stroke-linecap:butt;stroke-linejoin:miter;stroke-miterlimit:4;stroke-dasharray:none;stroke-opacity:1;marker-end:url(#Arrow1Mend-8-8)"
       d="m 241.23203,758.52106 c 0,0 -16.5652,-32.45269 -32.14285,-38.57142 -17.42727,-6.84523 -39.83549,-2.77838 -55.71428,7.14285 -16.91327,10.56758 -31.2318,29.68308 -32.85715,50 l -4.2857,53.57143"
       id="path6476-6-8"
       inkscape:connector-curvature="0"
       sodipodi:nodetypes="caasc" />
    <path
       style="fill:none;fill-rule:evenodd;stroke:#000000;stroke-width:10;stroke-linecap:butt;stroke-linejoin:miter;stroke-miterlimit:4;stroke-dasharray:none;stroke-opacity:1;marker-end:url(#Arrow1Mend-8-8-9)"
       d="m 197.88284,623.86237 c 0,0 -16.5652,-32.45269 -32.14285,-38.57142 -17.42727,-6.84523 -39.07073,-1.43381 -55.71428,7.14285 -19.320216,9.95598 -38.68641,28.25952 -44.285723,47.85714 l -12.857129,45"
       id="path6476-6-8-7"
       inkscape:connector-curvature="0"
       sodipodi:nodetypes="caasc" />
    <g
       transform="matrix(0.95057131,0.31050633,-0.31050633,0.95057131,616.24889,109.47632)"
       id="g5497-9-1-1-4-4-8">
      <path
         sodipodi:nodetypes="sssss"
         inkscape:connector-curvature="0"
         id="path5223-8-1-3-2-2-9-7"
         d="m 232.72904,372.8247 c -0.48022,-1.3507 1.5029,-1.2939 2.90178,-1.60715 1.02928,-0.23049 2.24118,-0.2185 3.12501,0.35715 0.84938,0.55321 2.63386,0.69706 2.18749,1.60714 -1.20688,2.46065 -7.29617,2.22519 -8.21428,-0.35714 z"
         style="fill:#999999;fill-rule:evenodd;stroke:#000000;stroke-width:1px;stroke-linecap:butt;stroke-linejoin:miter;stroke-opacity:1" />
      <path
         sodipodi:nodetypes="sssss"
         inkscape:connector-curvature="0"
         id="path5223-1-6-1-9-1-6"
         d="m 195.89286,369.68359 c -0.48022,-1.3507 1.5029,-1.2939 2.90178,-1.60715 1.02928,-0.23049 2.24118,-0.2185 3.12501,0.35715 0.84938,0.55321 2.63386,0.69706 2.18749,1.60714 -1.20688,2.46065 -7.29617,2.22519 -8.21428,-0.35714 z"
         style="fill:#999999;fill-rule:evenodd;stroke:#000000;stroke-width:1px;stroke-linecap:butt;stroke-linejoin:miter;stroke-opacity:1" />
      <g
         id="g5270-0-9-3-5-4-8">
        <g
           id="g5080-4-8-8-6-3-4">
          <g
             transform="matrix(0.99760001,0.06924034,-0.06924034,0.99760001,11.858019,31.114337)"
             id="g5066-2-1-0-6-9-6">
            <path
               sodipodi:nodetypes="sssssss"
               inkscape:connector-curvature="0"
               id="rect4947-0-1-7-3-1-7"
               d="m 199.34038,326.65738 c 3.4638,-2.82356 21.43234,-1.20727 39.51298,-0.64707 10.64437,0.3298 20.91847,-0.36058 22.14416,0.54895 2.65271,1.96844 4.8186,18.19738 0.74545,24.7225 -1.35042,2.16334 -11.57657,1.32355 -21.67041,1.78696 -17.86364,0.82014 -40.01,0.83374 -40.07256,0.72201 -1.70539,-3.04596 -3.8731,-24.51384 -0.65962,-27.13335 z"
               style="opacity:1;fill:#00aaaa;fill-opacity:1;stroke:#000000;stroke-width:1;stroke-linejoin:bevel;stroke-miterlimit:4;stroke-dasharray:none;stroke-dashoffset:0;stroke-opacity:1" />
            <path
               style="fill:#d3f51b;fill-opacity:1;fill-rule:evenodd;stroke:none;stroke-width:1px;stroke-linecap:butt;stroke-linejoin:miter;stroke-opacity:1;filter:url(#filter4999-6-5-7-7-4-3)"
               d="m 268.1955,328.33532 16.41498,-1.76777 0,9.59645 -16.66752,-2.77792 z"
               id="path4949-7-7-7-3-6-2"
               inkscape:connector-curvature="0" />
            <path
               style="fill:#d3f51b;fill-opacity:1;fill-rule:evenodd;stroke:none;stroke-width:1px;stroke-linecap:butt;stroke-linejoin:miter;stroke-opacity:1;filter:url(#filter4999-7-4-8-7-4-0-9)"
               d="m 268.1955,343.23507 16.41498,-1.76777 0,9.59645 -16.66752,-2.77792 z"
               id="path4949-0-1-8-8-7-1-1"
               inkscape:connector-curvature="0" />
            <path
               style="fill:#ca2409;fill-opacity:1;fill-rule:evenodd;stroke:none;stroke-width:1px;stroke-linecap:butt;stroke-linejoin:miter;stroke-opacity:1;filter:url(#filter4999-7-2-9-3-9-4-1-6)"
               d="m 168.94802,332.88101 16.41498,-1.76777 0,9.59645 -16.66752,-2.77792 z"
               id="path4949-0-0-2-6-1-6-5-4"
               inkscape:connector-curvature="0"
               transform="matrix(-0.72727279,0,0,-0.84210526,319.41485,615.24874)" />
            <path
               style="fill:#ca2409;fill-opacity:1;fill-rule:evenodd;stroke:none;stroke-width:1px;stroke-linecap:butt;stroke-linejoin:miter;stroke-opacity:1;filter:url(#filter4999-7-2-8-6-0-2-8-1-3)"
               d="m 168.94802,332.88101 16.41498,-1.76777 0,9.59645 -16.66752,-2.77792 z"
               id="path4949-0-0-8-1-1-8-0-1-4"
               inkscape:connector-curvature="0"
               transform="matrix(-0.72727279,0,0,-0.84210526,319.66738,629.39088)" />
          </g>
          <path
             inkscape:connector-curvature="0"
             id="path5073-4-9-1-4-6-1"
             d="m 238.01719,375.68622 7.95496,3.283 -0.75762,17.17259 -8.5863,1.01015 z"
             style="fill:#00d5d5;fill-opacity:1;fill-rule:evenodd;stroke:#000000;stroke-width:1px;stroke-linecap:butt;stroke-linejoin:miter;stroke-opacity:1" />
          <path
             sodipodi:nodetypes="ccccc"
             inkscape:connector-curvature="0"
             id="path5075-9-4-6-1-0-2"
             d="m 203.18796,374.35854 30.91489,0.82261 -1.01015,22.34962 -30.4468,-2.31617 z"
             style="fill:#008080;fill-opacity:1;fill-rule:evenodd;stroke:#000000;stroke-width:1px;stroke-linecap:butt;stroke-linejoin:miter;stroke-opacity:1" />
          <path
             inkscape:connector-curvature="0"
             id="path5078-6-3-5-8-5-7"
             d="m 201.42857,374.23716 -4.64286,0.98214 -0.35714,17.85714 4.55357,2.32143 z"
             style="fill:#00c7c7;fill-opacity:1;fill-rule:evenodd;stroke:#000000;stroke-width:1px;stroke-linecap:butt;stroke-linejoin:miter;stroke-opacity:1" />
        </g>
      </g>
      <path
         sodipodi:nodetypes="ssssss"
         inkscape:connector-curvature="0"
         id="path5223-8-5-4-5-7-8-9-9"
         d="m 232.14867,400.77112 c -0.48022,-1.3507 1.5029,-1.2939 2.90178,-1.60715 1.02928,-0.23049 2.24118,-0.2185 3.12501,0.35715 0.84938,0.55321 2.63386,0.69706 2.18749,1.60714 -0.62939,1.28323 -2.58661,1.38679 -4.44578,1.25307 -1.70587,-0.1227 -3.32919,-0.37457 -3.7685,-1.61021 z"
         style="fill:#999999;fill-rule:evenodd;stroke:#000000;stroke-width:1px;stroke-linecap:butt;stroke-linejoin:miter;stroke-opacity:1" />
      <path
         sodipodi:nodetypes="ssssss"
         inkscape:connector-curvature="0"
         id="path5223-8-5-9-3-8-0-6-8-3"
         d="m 193.93439,399.82085 c -0.48022,-1.3507 1.5029,-1.2939 2.90178,-1.60715 1.02928,-0.23049 2.24118,-0.2185 3.12501,0.35715 0.84938,0.55321 2.63386,0.69706 2.18749,1.60714 -0.62939,1.28323 -2.58661,1.38679 -4.44578,1.25307 -1.70587,-0.1227 -3.32919,-0.37457 -3.7685,-1.61021 z"
         style="fill:#999999;fill-rule:evenodd;stroke:#000000;stroke-width:1px;stroke-linecap:butt;stroke-linejoin:miter;stroke-opacity:1" />
    </g>
    <path
       style="fill:none;fill-rule:evenodd;stroke:#000000;stroke-width:10;stroke-linecap:butt;stroke-linejoin:miter;stroke-miterlimit:4;stroke-dasharray:none;stroke-opacity:1;marker-end:url(#marker10980)"
       d="m 636.42858,530.2193 c 0,0 -25.67796,-32.7767 -44.28572,-34.28571 -15.9285,-1.29173 -28.66056,14.27733 -42.14286,22.85714 -5.74504,3.65601 -16.42857,12.14286 -16.42857,12.14286"
       id="path10972"
       inkscape:connector-curvature="0"
       sodipodi:nodetypes="caac" />
    <path
       style="fill:none;fill-rule:evenodd;stroke:#000000;stroke-width:10;stroke-linecap:butt;stroke-linejoin:miter;stroke-miterlimit:4;stroke-dasharray:none;stroke-opacity:1;marker-end:url(#marker11394)"
       d="m 739.28571,604.50501 c 0,0 -45.03798,2.30412 -59.28571,17.14286 -9.67888,10.08038 -12.01056,26.88488 -10,40.71429 1.62738,11.19372 11.42552,19.5256 17.14286,29.28571 8.09091,13.81206 18.04358,26.68844 24.28571,41.42857 6.93803,16.38344 14.28572,51.42858 14.28572,51.42858"
       id="path11386"
       inkscape:connector-curvature="0"
       sodipodi:nodetypes="caaaac" />
    <rect
       style="opacity:1;fill:none;fill-opacity:1;stroke:#000000;stroke-width:0.99999994;stroke-linejoin:bevel;stroke-miterlimit:4;stroke-dasharray:none;stroke-dashoffset:0;stroke-opacity:1"
       id="rect6374"
       width="800"
       height="421.42856"
       x="1.4285715"
       y="446.64789"
       ry="1.01291"
       rx="1.01291" />
  </g>
</svg>
